<svg xmlns="http://www.w3.org/2000/svg" width="1054" height="292" viewBox="0 0 1054 292" fill="none"><path d="M0 5.37696C52.151 -3.55065 86.4609 0.208344 108.419 5.37696C150.964 14.7744 155.767 30.7501 214.78 52.3643C231.935 58.9426 264.872 70.2196 308.103 76.3279C380.154 85.7254 397.995 68.8099 457.694 78.2074C494.749 83.8459 489.259 90.894 574.348 121.436C634.047 143.05 664.24 153.857 705.411 159.965C771.286 169.363 778.835 154.327 842.651 161.375C915.388 168.893 985.38 196.616 1023.12 235.615C1044.39 257.699 1051.94 276.024 1054 292H0V5.37696Z" fill="#9DCECE"></path></svg>