<svg xmlns="http://www.w3.org/2000/svg" width="1188" height="294" viewBox="0 0 1188 294" fill="none"><path d="M1188 293.416L208.277 292.949C172.651 293.416 146.616 293.416 128.118 293.416C110.305 293.416 102.768 292.949 87.0104 293.416C74.6782 293.416 64.4014 293.883 46.5883 293.883C36.3114 293.883 37.6817 293.883 30.1453 293.883C13.0173 293.883 0 294.35 0 293.416C0 292.949 1.37026 292.949 4.11074 291.08C6.16611 289.678 7.53634 288.277 8.22146 287.809C17.128 279.399 86.3253 258.841 86.3253 258.841C102.768 254.169 125.377 244.825 145.931 227.538C149.356 224.734 155.523 220.062 163.744 215.857C179.502 207.914 194.574 205.111 203.481 203.242C241.163 194.365 239.107 182.684 274.734 170.536C297.343 162.594 317.896 160.725 352.152 158.389C404.221 154.651 430.256 160.257 460.401 158.389C533.709 153.716 587.149 133.159 621.405 120.076C717.322 82.6985 713.896 54.1979 793.37 36.4434C841.329 25.6973 885.177 27.0989 910.526 27.5662C1009.18 29.9023 1029.74 54.6651 1082.49 42.9845C1128.39 32.7056 1130.45 8.87723 1188 0" fill="#67ABB2"></path></svg>