<svg id="Layer_1" data-name="Layer 1" xmlns="http://www.w3.org/2000/svg" xmlns:xlink="http://www.w3.org/1999/xlink" viewBox="0 0 1080 1080" preserveAspectRatio="none"><defs><style>.cls-1{fill:url(#linear-gradient);}</style><linearGradient id="linear-gradient" x1="62.58" y1="533.57" x2="1017" y2="533.57" gradientUnits="userSpaceOnUse"><stop offset="0.13" stop-color="#64a8b0"/><stop offset="0.45" stop-color="#dccb6d"/><stop offset="0.49" stop-color="#dccb5b"/><stop offset="0.54" stop-color="#dccb49"/><stop offset="0.59" stop-color="#dccb5b"/><stop offset="0.64" stop-color="#dccb6d"/><stop offset="0.78" stop-color="#ebb55a"/><stop offset="0.87" stop-color="#f1ac53"/><stop offset="0.88" stop-color="#f1ab52"/></linearGradient></defs><title>Testimonial Borders</title><path class="cls-1" d="M534.49,91c38.81,0,66,4.16,97.49,9,38.56,5.9,82.26,12.6,156.76,12.6l7.91,0A1319.49,1319.49,0,0,0,995.8,96.19a894.22,894.22,0,0,0-20.68,151.3c-2.8,55.82.83,89.06,4.68,124.25,3.15,28.78,6.4,58.54,6.67,104.23.4,66.06-6,102.47-12.12,137.68C968.53,647,962.5,681.47,962.47,739c0,68.64,8.62,138.8,25.76,209A456,456,0,0,0,849.88,926c-5.75,0-11.58.11-17.33.34-54.17,2.16-85.06,13.68-114.94,24.82-27.33,10.19-53.14,19.81-98,23.65-10.15.87-19.93,1.31-29.07,1.31-43.3,0-68.38-9.43-94.93-19.42-25.19-9.48-51.24-19.28-91-19.28a301.43,301.43,0,0,0-45,3.61c-27.16,4.07-49.09,10.24-70.3,16.22C258.82,965.86,230,974,189.56,974c-7.18,0-14.69-.26-22.32-.77a384.76,384.76,0,0,1-85.66-15.71C99.83,878.67,109,799.8,108.9,722.82c-.06-43.56-3-76.39-5.82-108.14-4-44.79-7.77-87.09-3.06-155.46a751.63,751.63,0,0,1,9.15-77.75c3.45-21.4,6.71-41.61,8.55-77.48A886,886,0,0,0,104.09,98.31,736.15,736.15,0,0,0,227,117.37c14.76,1,28.45,1.5,41.86,1.5,45.49,0,78.86-5.89,114.2-12.12,29-5.12,59.07-10.41,100.2-13.61C501.8,91.7,518.56,91,534.49,91m0-16c-15.49,0-32.72.66-52.49,2.19-93.63,7.28-133.36,25.68-213.16,25.68-12.49,0-26-.45-40.77-1.47a720.54,720.54,0,0,1-144.64-25,872.69,872.69,0,0,1,18.32,226.79c-3.55,68.8-12.44,78.68-17.69,155-8.15,118.3,8.69,160.55,8.84,264.72.09,59-5.16,142.94-30.32,245.34a403.71,403.71,0,0,0,103.59,21c8.23.55,16,.8,23.39.8,70.81,0,106.6-23.23,172.42-33.08a285.73,285.73,0,0,1,42.61-3.44c76.58,0,96.87,38.7,185.93,38.7,9.34,0,19.44-.43,30.44-1.37,98-8.38,113-44.46,212.23-48.42,5.64-.23,11.2-.33,16.69-.33,68.5,0,124.64,16.79,161.44,31-27.51-98.94-32.88-179.48-32.85-234,.07-116.53,24.78-132.93,24-263.1-.61-103.2-16.35-128.27-11.37-227.59A875,875,0,0,1,1017,76.38,1300,1300,0,0,1,796.56,96.56l-7.82,0C655.55,96.59,623.48,75,534.49,75Z"/></svg>